<svg width="24" height="24" viewBox="0 0 24 24" fill="none" xmlns="http://www.w3.org/2000/svg">
<path d="M13.7563 3.3125C13.24 1.5625 10.76 1.5625 10.2438 3.3125L10.1187 3.7375C10.0416 3.99949 9.90682 4.2409 9.72424 4.44402C9.54166 4.64713 9.31594 4.80681 9.06362 4.91133C8.8113 5.01585 8.53878 5.06258 8.26606 5.04807C7.99333 5.03356 7.72731 4.9582 7.4875 4.8275L7.1 4.615C5.49625 3.7425 3.7425 5.49625 4.61625 7.09875L4.8275 7.4875C5.385 8.5125 4.85625 9.78875 3.7375 10.1187L3.3125 10.2438C1.5625 10.76 1.5625 13.24 3.3125 13.7563L3.7375 13.8813C3.99949 13.9584 4.2409 14.0932 4.44402 14.2758C4.64713 14.4583 4.80681 14.6841 4.91133 14.9364C5.01585 15.1887 5.06258 15.4612 5.04807 15.7339C5.03356 16.0067 4.9582 16.2727 4.8275 16.5125L4.615 16.9C3.7425 18.5038 5.49625 20.2575 7.09875 19.3838L7.4875 19.1725C7.72731 19.0418 7.99333 18.9664 8.26606 18.9519C8.53878 18.9374 8.8113 18.9841 9.06362 19.0887C9.31594 19.1932 9.54166 19.3529 9.72424 19.556C9.90682 19.7591 10.0416 20.0005 10.1187 20.2625L10.2438 20.6875C10.76 22.4375 13.24 22.4375 13.7563 20.6875L13.8813 20.2625C13.9584 20.0005 14.0932 19.7591 14.2758 19.556C14.4583 19.3529 14.6841 19.1932 14.9364 19.0887C15.1887 18.9841 15.4612 18.9374 15.7339 18.9519C16.0067 18.9664 16.2727 19.0418 16.5125 19.1725L16.9 19.385C18.5038 20.2575 20.2575 18.5037 19.3838 16.9012L19.1725 16.5125C19.0418 16.2727 18.9664 16.0067 18.9519 15.7339C18.9374 15.4612 18.9841 15.1887 19.0887 14.9364C19.1932 14.6841 19.3529 14.4583 19.556 14.2758C19.7591 14.0932 20.0005 13.9584 20.2625 13.8813L20.6875 13.7563C22.4375 13.24 22.4375 10.76 20.6875 10.2438L20.2625 10.1187C20.0005 10.0416 19.7591 9.90682 19.556 9.72424C19.3529 9.54166 19.1932 9.31594 19.0887 9.06362C18.9841 8.8113 18.9374 8.53878 18.9519 8.26606C18.9664 7.99333 19.0418 7.72731 19.1725 7.4875L19.385 7.1C20.2575 5.49625 18.5037 3.7425 16.9012 4.61625L16.5125 4.8275C16.2727 4.9582 16.0067 5.03356 15.7339 5.04807C15.4612 5.06258 15.1887 5.01585 14.9364 4.91133C14.6841 4.80681 14.4583 4.64713 14.2758 4.44402C14.0932 4.2409 13.9584 3.99949 13.8813 3.7375L13.7563 3.3125ZM12 15.6625C11.0286 15.6625 10.0971 15.2766 9.41022 14.5898C8.72337 13.9029 8.3375 12.9714 8.3375 12C8.3375 11.0286 8.72337 10.0971 9.41022 9.41022C10.0971 8.72337 11.0286 8.3375 12 8.3375C12.971 8.3375 13.9023 8.72324 14.5889 9.40986C15.2755 10.0965 15.6613 11.0277 15.6613 11.9987C15.6613 12.9698 15.2755 13.901 14.5889 14.5876C13.9023 15.2743 12.971 15.66 12 15.66V15.6625Z" fill="white"/>
<path d="M14.7154 3.02955L14.7156 3.03033L14.8405 3.45507C14.8406 3.45516 14.8406 3.45525 14.8406 3.45533C14.8756 3.57406 14.9367 3.68346 15.0195 3.77551L14.2758 4.44402L15.0195 3.77551C15.1023 3.86763 15.2047 3.94006 15.3191 3.98746C15.4335 4.03487 15.5571 4.05606 15.6808 4.04948C15.8045 4.0429 15.9252 4.00872 16.0339 3.94944L16.035 3.94885L16.4225 3.73828C16.4228 3.73813 16.4231 3.73799 16.4233 3.73785C18.9029 2.38678 21.6112 5.10055 20.2634 7.57789L20.2618 7.58084L20.0506 7.96605C20.0504 7.96635 20.0502 7.96664 20.0501 7.96693C19.9911 8.07547 19.9571 8.19581 19.9505 8.31917C19.9439 8.44286 19.9651 8.56646 20.0125 8.68091C20.0599 8.79535 20.1324 8.89772 20.2245 8.98053L19.556 9.72424L20.2245 8.98053C20.3166 9.06334 20.4261 9.12448 20.5449 9.15946L20.9697 9.28439L20.9704 9.28461C23.6765 10.0829 23.6765 13.9171 20.9704 14.7154L20.9697 14.7156L20.5449 14.8405C20.5448 14.8406 20.5448 14.8406 20.5447 14.8406C20.4259 14.8756 20.3165 14.9367 20.2245 15.0195L19.556 14.2758L20.2245 15.0195C20.1324 15.1023 20.0599 15.2047 20.0125 15.3191C19.9651 15.4335 19.9439 15.5571 19.9505 15.6808C19.9571 15.8045 19.9913 15.9252 20.0506 16.0339L20.0512 16.035L20.2617 16.4225L14.7154 3.02955ZM14.7154 3.02955C13.9171 0.323483 10.0829 0.323481 9.28461 3.02955L9.28439 3.03033M14.7154 3.02955L9.28439 3.03033M9.28439 3.03033L9.15946 3.45507C9.15944 3.45516 9.15941 3.45524 9.15938 3.45533C9.12439 3.57406 9.06328 3.68346 8.98053 3.77551C8.89772 3.86764 8.79535 3.94006 8.68091 3.98746C8.56647 4.03487 8.44287 4.05606 8.31917 4.04948C8.19583 4.04292 8.07552 4.00892 7.967 3.94996C7.96668 3.94979 7.96637 3.94961 7.96605 3.94944L7.58083 3.73819L7.58084 3.73818M9.28439 3.03033L7.58084 3.73818M7.58084 3.73818L7.57789 3.73658M7.58084 3.73818L7.57789 3.73658M7.57789 3.73658C5.10055 2.38881 2.38678 5.09713 3.73785 7.57668C3.73799 7.57694 3.73813 7.5772 3.73828 7.57746L3.94885 7.96497L3.94903 7.9653M7.57789 3.73658L3.94903 7.9653M3.94903 7.9653C4.20238 8.4311 3.96244 9.00948 3.45506 9.15946C3.4549 9.15951 3.45474 9.15956 3.45458 9.15961L3.03033 9.28439L3.02955 9.28461M3.94903 7.9653L3.02955 9.28461M3.02955 9.28461C0.323481 10.0829 0.323483 13.9171 3.02955 14.7154L3.03033 14.7156M3.02955 9.28461L3.03033 14.7156M3.03033 14.7156L3.45507 14.8405C3.45516 14.8406 3.45525 14.8406 3.45533 14.8406C3.57406 14.8756 3.68346 14.9367 3.77551 15.0195L4.44402 14.2758L3.77551 15.0195C3.86763 15.1023 3.94006 15.2047 3.98746 15.3191C4.03487 15.4335 4.05606 15.5571 4.04948 15.6808C4.04292 15.8042 4.00892 15.9245 3.94997 16.033C3.94979 16.0333 3.94962 16.0336 3.94944 16.0339L3.73818 16.4192L3.73658 16.4221M3.03033 14.7156L3.73658 16.4221M3.73658 16.4221C2.3889 18.8993 5.0968 21.6129 7.57622 20.2624L3.73658 16.4221ZM7.96605 20.0506L7.96497 20.0512L7.57746 20.2617L7.96605 20.0506ZM7.96605 20.0506C8.07482 19.9913 8.19548 19.9571 8.31917 19.9505C8.44286 19.9439 8.56646 19.9651 8.6809 20.0125C8.79535 20.0599 8.89772 20.1324 8.98053 20.2245L9.72424 19.556M7.96605 20.0506L9.72424 19.556M9.72424 19.556L8.98053 20.2245C9.06334 20.3166 9.12448 20.4261 9.15946 20.5449L9.28439 20.9697L9.28461 20.9704M9.72424 19.556L9.28461 20.9704M9.28461 20.9704C10.0829 23.6765 13.9171 23.6765 14.7154 20.9704L14.7156 20.9697M9.28461 20.9704L14.7156 20.9697M14.7156 20.9697L14.8405 20.5449C14.8406 20.5448 14.8406 20.5448 14.8406 20.5447C14.8756 20.4259 14.9367 20.3165 15.0195 20.2245L14.2758 19.556M14.7156 20.9697L14.2758 19.556M14.2758 19.556L15.0195 20.2245C15.1023 20.1324 15.2047 20.0599 15.3191 20.0125C15.4335 19.9651 15.5571 19.9439 15.6808 19.9505C15.8041 19.9571 15.9243 19.991 16.0328 20.0499C16.0332 20.0501 16.0335 20.0503 16.0339 20.0506L16.4192 20.2618L16.4221 20.2634C18.8993 21.6111 21.6129 18.9032 20.2624 16.4238L14.2758 19.556ZM12 14.66H11.8846C11.2204 14.6312 10.5894 14.3547 10.1173 13.8827C9.61801 13.3834 9.3375 12.7061 9.3375 12C9.3375 11.2939 9.61801 10.6166 10.1173 10.1173C10.6166 9.61801 11.2939 9.3375 12 9.3375C12.7058 9.3375 13.3827 9.61788 13.8818 10.117C14.3809 10.616 14.6613 11.2929 14.6613 11.9987C14.6613 12.7046 14.3809 13.3815 13.8818 13.8805C13.3827 14.3796 12.7058 14.66 12 14.66Z" stroke="black" stroke-opacity="0.3" stroke-width="2"/>
</svg>
