<svg width="28" height="26" viewBox="0 0 28 26" fill="none" xmlns="http://www.w3.org/2000/svg">
<g filter="url(#filter0_d_60_78)">
<path fill-rule="evenodd" clip-rule="evenodd" d="M7 6C6.73478 6 6.48043 6.10536 6.29289 6.29289C6.10536 6.48043 6 6.73478 6 7V19C6 19.2652 6.10536 19.5196 6.29289 19.7071C6.48043 19.8946 6.73478 20 7 20C7.26522 20 7.51957 19.8946 7.70711 19.7071C7.89464 19.5196 8 19.2652 8 19V7C8 6.73478 7.89464 6.48043 7.70711 6.29289C7.51957 6.10536 7.26522 6 7 6ZM17.293 15.293C17.1108 15.4816 17.01 15.7342 17.0123 15.9964C17.0146 16.2586 17.1198 16.5094 17.3052 16.6948C17.4906 16.8802 17.7414 16.9854 18.0036 16.9877C18.2658 16.99 18.5184 16.8892 18.707 16.707L21.707 13.707C21.8945 13.5195 21.9998 13.2652 21.9998 13C21.9998 12.7348 21.8945 12.4805 21.707 12.293L18.707 9.293C18.6148 9.19749 18.5044 9.12131 18.3824 9.0689C18.2604 9.01649 18.1292 8.9889 17.9964 8.98775C17.8636 8.9866 17.7319 9.0119 17.609 9.06218C17.4861 9.11246 17.3745 9.18671 17.2806 9.2806C17.1867 9.3745 17.1125 9.48615 17.0622 9.60905C17.0119 9.73194 16.9866 9.86362 16.9877 9.9964C16.9889 10.1292 17.0165 10.2604 17.0689 10.3824C17.1213 10.5044 17.1975 10.6148 17.293 10.707L18.586 12H11C10.7348 12 10.4804 12.1054 10.2929 12.2929C10.1054 12.4804 10 12.7348 10 13C10 13.2652 10.1054 13.5196 10.2929 13.7071C10.4804 13.8946 10.7348 14 11 14H18.586L17.293 15.293Z" fill="#EA0C0C"/>
</g>
<defs>
<filter id="filter0_d_60_78" x="0" y="0" width="27.9998" height="26" filterUnits="userSpaceOnUse" color-interpolation-filters="sRGB">
<feFlood flood-opacity="0" result="BackgroundImageFix"/>
<feColorMatrix in="SourceAlpha" type="matrix" values="0 0 0 0 0 0 0 0 0 0 0 0 0 0 0 0 0 0 127 0" result="hardAlpha"/>
<feOffset/>
<feGaussianBlur stdDeviation="3"/>
<feComposite in2="hardAlpha" operator="out"/>
<feColorMatrix type="matrix" values="0 0 0 0 0.917647 0 0 0 0 0.0470588 0 0 0 0 0.0470588 0 0 0 1 0"/>
<feBlend mode="normal" in2="BackgroundImageFix" result="effect1_dropShadow_60_78"/>
<feBlend mode="normal" in="SourceGraphic" in2="effect1_dropShadow_60_78" result="shape"/>
</filter>
</defs>
</svg>
