<svg width="27" height="27" viewBox="0 0 27 27" fill="none" xmlns="http://www.w3.org/2000/svg">
<path d="M25.1269 20.5622L22.0472 16.7822L21.9375 10.125C21.9411 10.0801 21.9411 10.0349 21.9375 9.99C20.9672 4.70812 17.896 1.6875 13.5 1.6875C8.85942 1.6875 5.13004 5.0625 4.21879 9.97312C4.21423 10.0236 4.21423 10.0745 4.21879 10.125L4.10911 16.875L1.80567 20.655C1.73161 20.7833 1.69263 20.9288 1.69263 21.0769C1.69263 21.225 1.73161 21.3705 1.80567 21.4987C1.87713 21.6294 1.98191 21.7388 2.10936 21.8159C2.23681 21.893 2.38238 21.9349 2.53129 21.9375H10.125C10.125 22.8326 10.4806 23.691 11.1136 24.324C11.7465 24.9569 12.6049 25.3125 13.5 25.3125C14.3951 25.3125 15.2536 24.9569 15.8865 24.324C16.5195 23.691 16.875 22.8326 16.875 21.9375H24.4688C24.6278 21.937 24.7835 21.8917 24.9179 21.8066C25.0522 21.7215 25.1598 21.6001 25.2282 21.4566C25.2974 21.3131 25.3247 21.153 25.3068 20.9947C25.2888 20.8365 25.2265 20.6865 25.1269 20.5622ZM13.5 23.625C13.0525 23.625 12.6233 23.4472 12.3068 23.1307C11.9903 22.8143 11.8125 22.3851 11.8125 21.9375H15.1875C15.1875 22.3851 15.0098 22.8143 14.6933 23.1307C14.3768 23.4472 13.9476 23.625 13.5 23.625ZM4.02473 20.25L5.71223 17.5163C5.78806 17.3885 5.82881 17.2429 5.83036 17.0944L5.90629 10.2094C6.67411 6.11719 9.72004 3.375 13.5 3.375C18.2504 3.375 19.7691 7.59375 20.25 10.2094L20.3682 17.0944C20.3693 17.2847 20.4347 17.4691 20.5538 17.6175L22.6969 20.25H4.02473Z" fill="white"/>
</svg>
