<svg width="28" height="28" viewBox="0 0 28 28" fill="none" xmlns="http://www.w3.org/2000/svg">
<path d="M14.8749 27.125H13.1249C12.48 27.1297 11.856 26.8968 11.3718 26.4707C10.8877 26.0446 10.5773 25.4553 10.4999 24.815C9.91276 24.6294 9.34203 24.3953 8.7937 24.115C8.28597 24.5165 7.64782 24.7162 7.00181 24.6758C6.3558 24.6354 5.74748 24.3578 5.2937 23.8963L4.1037 22.6625C3.64214 22.2087 3.3645 21.6004 3.32413 20.9544C3.28375 20.3084 3.48348 19.6702 3.88495 19.1625C3.60688 18.6283 3.37277 18.0723 3.18495 17.5C2.54468 17.4226 1.95531 17.1123 1.52925 16.6281C1.1032 16.144 0.870288 15.5199 0.874946 14.875V13.125C0.870288 12.4801 1.1032 11.8561 1.52925 11.3719C1.95531 10.8877 2.54468 10.5774 3.18495 10.5C3.37052 9.91282 3.60467 9.3421 3.88495 8.79376C3.48348 8.28603 3.28375 7.64788 3.32413 7.00187C3.3645 6.35586 3.64214 5.74754 4.1037 5.29376L5.33745 4.10376C5.79123 3.6422 6.39955 3.36457 7.04556 3.32419C7.69157 3.28381 8.32972 3.48354 8.83745 3.88501C9.3717 3.60694 9.9277 3.37283 10.4999 3.18501C10.5773 2.54474 10.8877 1.95537 11.3718 1.52932C11.856 1.10326 12.48 0.870349 13.1249 0.875008H14.8749C15.5199 0.870349 16.1439 1.10326 16.6281 1.52932C17.1122 1.95537 17.4226 2.54474 17.4999 3.18501C18.0871 3.37058 18.6579 3.60473 19.2062 3.88501C19.7139 3.48354 20.3521 3.28381 20.9981 3.32419C21.6441 3.36457 22.2524 3.6422 22.7062 4.10376L23.8962 5.33751C24.3578 5.79129 24.6354 6.39961 24.6758 7.04562C24.7161 7.69163 24.5164 8.32978 24.1149 8.83751C24.3952 9.38585 24.6294 9.95657 24.8149 10.5438C25.4477 10.6202 26.0311 10.9243 26.4561 11.3993C26.8812 11.8742 27.1189 12.4876 27.1249 13.125V14.875C27.1296 15.5199 26.8967 16.144 26.4706 16.6281C26.0446 17.1123 25.4552 17.4226 24.8149 17.5C24.6294 18.0872 24.3952 18.6579 24.1149 19.2063C24.5164 19.714 24.7161 20.3521 24.6758 20.9981C24.6354 21.6442 24.3578 22.2525 23.8962 22.7063L22.6624 23.8963C22.2087 24.3578 21.6003 24.6354 20.9543 24.6758C20.3083 24.7162 19.6702 24.5165 19.1624 24.115C18.6141 24.3953 18.0434 24.6294 17.4562 24.815C17.3797 25.4478 17.0757 26.0312 16.6007 26.4562C16.1257 26.8813 15.5123 27.119 14.8749 27.125ZM8.6712 22.1638C8.8286 22.161 8.98349 22.2036 9.11745 22.2863C9.89109 22.7413 10.7246 23.0859 11.5937 23.31C11.7862 23.3596 11.9561 23.4733 12.0754 23.6323C12.1947 23.7914 12.2562 23.9863 12.2499 24.185V24.5C12.2499 24.7321 12.3421 24.9546 12.5062 25.1187C12.6703 25.2828 12.8929 25.375 13.1249 25.375H14.8749C15.107 25.375 15.3296 25.2828 15.4937 25.1187C15.6578 24.9546 15.7499 24.7321 15.7499 24.5V24.1588C15.7437 23.9601 15.8052 23.7651 15.9245 23.6061C16.0438 23.447 16.2137 23.3334 16.4062 23.2838C17.2753 23.0596 18.1088 22.715 18.8824 22.26C19.0487 22.1621 19.2427 22.1219 19.4341 22.1456C19.6256 22.1693 19.8039 22.2557 19.9412 22.3913L20.1862 22.6363C20.2675 22.7183 20.3643 22.7834 20.4709 22.8278C20.5776 22.8722 20.6919 22.8951 20.8074 22.8951C20.923 22.8951 21.0373 22.8722 21.144 22.8278C21.2506 22.7834 21.3474 22.7183 21.4287 22.6363L22.6624 21.4025C22.7445 21.3212 22.8096 21.2244 22.854 21.1178C22.8984 21.0111 22.9213 20.8968 22.9213 20.7813C22.9213 20.6657 22.8984 20.5514 22.854 20.4448C22.8096 20.3381 22.7445 20.2414 22.6624 20.16L22.4174 19.915C22.2819 19.7777 22.1955 19.5994 22.1718 19.4079C22.1481 19.2165 22.1883 19.0225 22.2862 18.8563C22.7412 18.0826 23.0858 17.2491 23.3099 16.38C23.3595 16.1875 23.4732 16.0176 23.6323 15.8983C23.7913 15.779 23.9862 15.7175 24.1849 15.7238H24.4999C24.732 15.7238 24.9546 15.6316 25.1187 15.4675C25.2828 15.3034 25.3749 15.0808 25.3749 14.8488V13.125C25.3749 12.8929 25.2828 12.6704 25.1187 12.5063C24.9546 12.3422 24.732 12.25 24.4999 12.25H24.1587C23.96 12.2563 23.7651 12.1947 23.606 12.0754C23.447 11.9562 23.3333 11.7863 23.2837 11.5938C23.0596 10.7246 22.715 9.89115 22.2599 9.11751C22.162 8.95125 22.1218 8.7573 22.1455 8.56582C22.1693 8.37434 22.2556 8.19607 22.3912 8.05876L22.6362 7.81376C22.7182 7.73242 22.7833 7.63564 22.8277 7.52901C22.8721 7.42239 22.895 7.30802 22.895 7.19251C22.895 7.077 22.8721 6.96263 22.8277 6.856C22.7833 6.74938 22.7182 6.6526 22.6362 6.57126L21.4287 5.33751C21.3474 5.2555 21.2506 5.1904 21.144 5.14598C21.0373 5.10155 20.923 5.07868 20.8074 5.07868C20.6919 5.07868 20.5776 5.10155 20.4709 5.14598C20.3643 5.1904 20.2675 5.2555 20.1862 5.33751L19.9412 5.58251C19.8039 5.71806 19.6256 5.80442 19.4341 5.82815C19.2427 5.85189 19.0487 5.81167 18.8824 5.71376C18.1088 5.25872 17.2753 4.91413 16.4062 4.69001C16.2137 4.64041 16.0438 4.52672 15.9245 4.36768C15.8052 4.20864 15.7437 4.01371 15.7499 3.81501V3.50001C15.7499 3.26794 15.6578 3.04538 15.4937 2.88129C15.3296 2.71719 15.107 2.62501 14.8749 2.62501H13.1249C12.8929 2.62501 12.6703 2.71719 12.5062 2.88129C12.3421 3.04538 12.2499 3.26794 12.2499 3.50001V3.84126C12.2562 4.03996 12.1947 4.23489 12.0754 4.39393C11.9561 4.55297 11.7862 4.66666 11.5937 4.71626C10.7246 4.94038 9.89109 5.28497 9.11745 5.74001C8.95119 5.83792 8.75724 5.87814 8.56575 5.8544C8.37427 5.83067 8.19601 5.74431 8.0587 5.60876L7.8137 5.33751C7.73235 5.2555 7.63558 5.1904 7.52895 5.14598C7.42232 5.10155 7.30796 5.07868 7.19245 5.07868C7.07694 5.07868 6.96257 5.10155 6.85594 5.14598C6.74932 5.1904 6.65254 5.2555 6.5712 5.33751L5.33745 6.57126C5.25543 6.6526 5.19034 6.74938 5.14592 6.856C5.10149 6.96263 5.07862 7.077 5.07862 7.19251C5.07862 7.30802 5.10149 7.42239 5.14592 7.52901C5.19034 7.63564 5.25543 7.73242 5.33745 7.81376L5.58245 8.05876C5.718 8.19607 5.80436 8.37434 5.82809 8.56582C5.85183 8.7573 5.81161 8.95125 5.7137 9.11751C5.25866 9.89115 4.91407 10.7246 4.68995 11.5938C4.64034 11.7863 4.52666 11.9562 4.36762 12.0754C4.20857 12.1947 4.01365 12.2563 3.81495 12.25H3.49995C3.26788 12.25 3.04532 12.3422 2.88123 12.5063C2.71713 12.6704 2.62495 12.8929 2.62495 13.125V14.875C2.62495 15.1071 2.71713 15.3296 2.88123 15.4937C3.04532 15.6578 3.26788 15.75 3.49995 15.75H3.8412C4.0399 15.7437 4.23482 15.8053 4.39387 15.9246C4.55291 16.0439 4.66659 16.2137 4.7162 16.4063C4.94032 17.2754 5.28491 18.1089 5.73995 18.8825C5.83786 19.0488 5.87808 19.2427 5.85434 19.4342C5.83061 19.6257 5.74424 19.8039 5.6087 19.9413L5.3637 20.1863C5.28168 20.2676 5.21659 20.3644 5.17217 20.471C5.12774 20.5776 5.10487 20.692 5.10487 20.8075C5.10487 20.923 5.12774 21.0374 5.17217 21.144C5.21659 21.2506 5.28168 21.3474 5.3637 21.4288L6.5712 22.6625C6.65254 22.7445 6.74932 22.8096 6.85594 22.854C6.96257 22.8985 7.07694 22.9213 7.19245 22.9213C7.30796 22.9213 7.42232 22.8985 7.52895 22.854C7.63558 22.8096 7.73235 22.7445 7.8137 22.6625L8.0587 22.4175C8.22167 22.2559 8.44165 22.1647 8.6712 22.1638Z" fill="white"/>
<path d="M14 20.125C12.7886 20.125 11.6044 19.7658 10.5971 19.0928C9.58988 18.4197 8.80483 17.4631 8.34124 16.3439C7.87765 15.2247 7.75636 13.9932 7.99269 12.8051C8.22903 11.6169 8.81238 10.5256 9.66897 9.66897C10.5256 8.81238 11.6169 8.22903 12.8051 7.99269C13.9932 7.75636 15.2247 7.87765 16.3439 8.34124C17.4631 8.80483 18.4197 9.58988 19.0928 10.5971C19.7658 11.6044 20.125 12.7886 20.125 14C20.125 15.6245 19.4797 17.1824 18.331 18.331C17.1824 19.4797 15.6245 20.125 14 20.125ZM14 9.625C13.1347 9.625 12.2888 9.88159 11.5694 10.3623C10.8499 10.8431 10.2892 11.5263 9.95803 12.3258C9.6269 13.1252 9.54026 14.0049 9.70907 14.8535C9.87788 15.7022 10.2946 16.4817 10.9064 17.0936C11.5183 17.7054 12.2978 18.1221 13.1465 18.2909C13.9951 18.4597 14.8748 18.3731 15.6742 18.042C16.4737 17.7108 17.157 17.1501 17.6377 16.4306C18.1184 15.7112 18.375 14.8653 18.375 14C18.375 12.8397 17.9141 11.7269 17.0936 10.9064C16.2731 10.0859 15.1603 9.625 14 9.625Z" fill="white"/>
</svg>
