<svg width="33" height="32" viewBox="0 0 33 32" fill="none" xmlns="http://www.w3.org/2000/svg">
<g filter="url(#filter0_d_174_1066)">
<rect x="6.5" y="6" width="20" height="20" rx="10" fill="#07EF9C"/>
<g clip-path="url(#clip0_174_1066)">
<path d="M21.894 21.2852L21.2964 21.8828C21.2183 21.9609 21.1226 22 21.0093 22C20.896 22 20.7964 21.9609 20.7104 21.8828L16.8667 18.0273L15.9644 18.9414C15.9175 18.9805 15.8628 19 15.8003 19C15.7378 19 15.687 18.9805 15.6479 18.9414L15.3198 18.625C15.2808 18.5781 15.2612 18.5234 15.2612 18.4609C15.2612 18.3984 15.2808 18.3438 15.3198 18.2969L15.6597 17.957L13.0112 15.625C12.4253 15.0391 11.7964 14.1426 11.1245 12.9355C10.4526 11.7285 10.0815 10.75 10.0112 10C10.0972 10.1016 10.2026 10.2148 10.3276 10.3398C10.4526 10.4648 10.5991 10.6074 10.7671 10.7676C10.9351 10.9277 11.0581 11.0469 11.1362 11.125C11.7065 11.6953 12.3081 12.1777 12.9409 12.5723C13.5737 12.9668 13.9604 13.0938 14.1011 12.9531L14.1069 12.9473L14.1128 12.9297L17.4058 16.2227L17.5581 16.0586C17.605 16.0195 17.6597 16 17.7222 16C17.7847 16 17.8394 16.0195 17.8862 16.0586L18.2026 16.3867C18.2495 16.4258 18.2729 16.4766 18.2729 16.5391C18.2729 16.6016 18.2495 16.6562 18.2026 16.7031L18.0503 16.8555L21.894 20.6992C21.9722 20.7852 22.0112 20.8848 22.0112 20.998C22.0112 21.1113 21.9722 21.207 21.894 21.2852Z" fill="black" fill-opacity="0.5"/>
</g>
</g>
<defs>
<filter id="filter0_d_174_1066" x="0.5" y="0" width="32" height="32" filterUnits="userSpaceOnUse" color-interpolation-filters="sRGB">
<feFlood flood-opacity="0" result="BackgroundImageFix"/>
<feColorMatrix in="SourceAlpha" type="matrix" values="0 0 0 0 0 0 0 0 0 0 0 0 0 0 0 0 0 0 127 0" result="hardAlpha"/>
<feOffset/>
<feGaussianBlur stdDeviation="3"/>
<feComposite in2="hardAlpha" operator="out"/>
<feColorMatrix type="matrix" values="0 0 0 0 0.027451 0 0 0 0 0.937255 0 0 0 0 0.607843 0 0 0 1 0"/>
<feBlend mode="normal" in2="BackgroundImageFix" result="effect1_dropShadow_174_1066"/>
<feBlend mode="normal" in="SourceGraphic" in2="effect1_dropShadow_174_1066" result="shape"/>
</filter>
<clipPath id="clip0_174_1066">
<rect width="12.0117" height="12" fill="white" transform="translate(10 10)"/>
</clipPath>
</defs>
</svg>
