<svg width="32" height="32" viewBox="0 0 32 32" fill="none" xmlns="http://www.w3.org/2000/svg">
<path d="M29 6H3H2.92C2.85032 5.99054 2.77968 5.99054 2.71 6L2.54 6.07C2.4856 6.09621 2.43511 6.12987 2.39 6.17C2.33311 6.20869 2.28252 6.25591 2.24 6.31L2.18 6.37C2.17624 6.39989 2.17624 6.43012 2.18 6.46C2.14734 6.52064 2.12055 6.58426 2.1 6.65C2.05804 6.72962 2.02452 6.81341 2 6.9V7V25C2 25.2652 2.10536 25.5196 2.29289 25.7071C2.48043 25.8946 2.73478 26 3 26H29C29.2652 26 29.5196 25.8946 29.7071 25.7071C29.8946 25.5196 30 25.2652 30 25V7C30 6.73479 29.8946 6.48043 29.7071 6.2929C29.5196 6.10536 29.2652 6 29 6ZM16 14.81L6.2 8H27.09L16 14.81ZM4 24V8.91L15.43 16.82C15.4879 16.854 15.5481 16.884 15.61 16.91H15.69C15.7883 16.9552 15.8928 16.9856 16 17C16.1422 16.9962 16.282 16.9621 16.41 16.9H16.48L28 9.79V24H4Z" fill="white"/>
</svg>
