<svg width="27" height="27" viewBox="0 0 27 27" fill="none" xmlns="http://www.w3.org/2000/svg">
<path d="M24.4688 5.0625H2.53125C2.30747 5.0625 2.09286 5.1514 1.93463 5.30963C1.77639 5.46786 1.6875 5.68247 1.6875 5.90625C1.6875 6.13003 1.77639 6.34464 1.93463 6.50287C2.09286 6.66111 2.30747 6.75 2.53125 6.75H24.4688C24.6925 6.75 24.9071 6.66111 25.0654 6.50287C25.2236 6.34464 25.3125 6.13003 25.3125 5.90625C25.3125 5.68247 25.2236 5.46786 25.0654 5.30963C24.9071 5.1514 24.6925 5.0625 24.4688 5.0625Z" fill="white"/>
<path d="M2.53125 14.3438H13.5C13.7238 14.3438 13.9384 14.2549 14.0966 14.0966C14.2549 13.9384 14.3438 13.7238 14.3438 13.5C14.3438 13.2762 14.2549 13.0616 14.0966 12.9034C13.9384 12.7451 13.7238 12.6562 13.5 12.6562H2.53125C2.30747 12.6562 2.09286 12.7451 1.93463 12.9034C1.77639 13.0616 1.6875 13.2762 1.6875 13.5C1.6875 13.7238 1.77639 13.9384 1.93463 14.0966C2.09286 14.2549 2.30747 14.3438 2.53125 14.3438Z" fill="white"/>
<path d="M21.0938 20.25H2.53125C2.30747 20.25 2.09286 20.3389 1.93463 20.4971C1.77639 20.6554 1.6875 20.87 1.6875 21.0938C1.6875 21.3175 1.77639 21.5321 1.93463 21.6904C2.09286 21.8486 2.30747 21.9375 2.53125 21.9375H21.0938C21.3175 21.9375 21.5321 21.8486 21.6904 21.6904C21.8486 21.5321 21.9375 21.3175 21.9375 21.0938C21.9375 20.87 21.8486 20.6554 21.6904 20.4971C21.5321 20.3389 21.3175 20.25 21.0938 20.25Z" fill="white"/>
</svg>
