<svg width="28" height="28" viewBox="0 0 28 28" fill="none" xmlns="http://www.w3.org/2000/svg">
<g clip-path="url(#clip0_5_1408)">
<path d="M25.1269 21.5622L22.0472 17.7822L21.9375 11.125C21.9411 11.0801 21.9411 11.0349 21.9375 10.99C20.9672 5.70812 17.896 2.6875 13.5 2.6875C8.85939 2.6875 5.13001 6.0625 4.21876 10.9731C4.2142 11.0236 4.2142 11.0745 4.21876 11.125L4.10907 17.875L1.80564 21.655C1.73158 21.7833 1.6926 21.9288 1.6926 22.0769C1.6926 22.225 1.73158 22.3705 1.80564 22.4987C1.8771 22.6294 1.98188 22.7388 2.10933 22.8159C2.23678 22.893 2.38235 22.9349 2.53126 22.9375H10.125C10.125 23.8326 10.4806 24.691 11.1135 25.324C11.7465 25.9569 12.6049 26.3125 13.5 26.3125C14.3951 26.3125 15.2536 25.9569 15.8865 25.324C16.5194 24.691 16.875 23.8326 16.875 22.9375H24.4688C24.6278 22.937 24.7835 22.8917 24.9178 22.8066C25.0522 22.7215 25.1598 22.6001 25.2281 22.4566C25.2974 22.3131 25.3246 22.153 25.3067 21.9947C25.2888 21.8365 25.2265 21.6865 25.1269 21.5622ZM13.5 24.625C13.0525 24.625 12.6232 24.4472 12.3068 24.1307C11.9903 23.8143 11.8125 23.3851 11.8125 22.9375H15.1875C15.1875 23.3851 15.0097 23.8143 14.6933 24.1307C14.3768 24.4472 13.9476 24.625 13.5 24.625ZM4.0247 21.25L5.7122 18.5163C5.78803 18.3885 5.82878 18.2429 5.83032 18.0944L5.90626 11.2094C6.67408 7.11719 9.72001 4.375 13.5 4.375C18.2503 4.375 19.7691 8.59375 20.25 11.2094L20.3681 18.0944C20.3692 18.2847 20.4347 18.4691 20.5538 18.6175L22.6969 21.25H4.0247Z" fill="white"/>
<line x1="-0.338528" y1="25.632" x2="24.6615" y2="2.63204" stroke="#FF6046"/>
</g>
<circle cx="25.5" cy="2.5" r="2.5" fill="#FF6046"/>
<circle cx="25.5" cy="2.5" r="2.5" fill="#FF6046"/>
<circle cx="25.5" cy="2.5" r="2.5" fill="#FF6046"/>
<defs>
<clipPath id="clip0_5_1408">
<rect width="27" height="27" fill="white" transform="translate(0 1)"/>
</clipPath>
</defs>
</svg>
