<svg width="15" height="15" viewBox="0 0 15 15" fill="none" xmlns="http://www.w3.org/2000/svg">
<g clip-path="url(#clip0_2_189)">
<path d="M5.83078 0C2.6113 0 0.000854492 2.61044 0.000854492 5.82995C0.000854492 9.04945 2.6113 11.6599 5.8308 11.6599C7.06883 11.6599 8.21696 11.2737 9.16074 10.616L9.16142 10.6153L13.4852 14.9391C13.5654 15.0193 13.693 15.0214 13.7753 14.9391L14.9406 13.7738C15.0209 13.6935 15.0167 13.5605 14.9399 13.4837L10.6168 9.16057C11.2746 8.21611 11.6607 7.06795 11.6607 5.82995C11.6607 2.61044 9.05028 0 5.83078 0ZM5.83078 10.2881C3.36848 10.2881 1.37259 8.29225 1.37259 5.82995C1.37259 3.36765 3.3685 1.37176 5.83078 1.37176C8.29305 1.37176 10.289 3.36765 10.289 5.82995C10.289 8.29225 8.29308 10.2881 5.83078 10.2881Z" fill="#545454"/>
</g>
<defs>
<clipPath id="clip0_2_189">
<rect width="15" height="15" fill="white"/>
</clipPath>
</defs>
</svg>
