<svg width="40" height="40" viewBox="0 0 40 40" fill="none" xmlns="http://www.w3.org/2000/svg">
<rect width="40" height="40" rx="10" fill="black" fill-opacity="0.3"/>
<path d="M21.7563 11.3125C21.24 9.5625 18.76 9.5625 18.2438 11.3125L18.1187 11.7375C18.0416 11.9995 17.9068 12.2409 17.7242 12.444C17.5417 12.6471 17.3159 12.8068 17.0636 12.9113C16.8113 13.0159 16.5388 13.0626 16.2661 13.0481C15.9933 13.0336 15.7273 12.9582 15.4875 12.8275L15.1 12.615C13.4963 11.7425 11.7425 13.4963 12.6163 15.0988L12.8275 15.4875C13.385 16.5125 12.8563 17.7887 11.7375 18.1187L11.3125 18.2438C9.5625 18.76 9.5625 21.24 11.3125 21.7563L11.7375 21.8813C11.9995 21.9584 12.2409 22.0932 12.444 22.2758C12.6471 22.4583 12.8068 22.6841 12.9113 22.9364C13.0159 23.1887 13.0626 23.4612 13.0481 23.7339C13.0336 24.0067 12.9582 24.2727 12.8275 24.5125L12.615 24.9C11.7425 26.5038 13.4963 28.2575 15.0988 27.3838L15.4875 27.1725C15.7273 27.0418 15.9933 26.9664 16.2661 26.9519C16.5388 26.9374 16.8113 26.9841 17.0636 27.0887C17.3159 27.1932 17.5417 27.3529 17.7242 27.556C17.9068 27.7591 18.0416 28.0005 18.1187 28.2625L18.2438 28.6875C18.76 30.4375 21.24 30.4375 21.7563 28.6875L21.8813 28.2625C21.9584 28.0005 22.0932 27.7591 22.2758 27.556C22.4583 27.3529 22.6841 27.1932 22.9364 27.0887C23.1887 26.9841 23.4612 26.9374 23.7339 26.9519C24.0067 26.9664 24.2727 27.0418 24.5125 27.1725L24.9 27.385C26.5038 28.2575 28.2575 26.5037 27.3838 24.9012L27.1725 24.5125C27.0418 24.2727 26.9664 24.0067 26.9519 23.7339C26.9374 23.4612 26.9841 23.1887 27.0887 22.9364C27.1932 22.6841 27.3529 22.4583 27.556 22.2758C27.7591 22.0932 28.0005 21.9584 28.2625 21.8813L28.6875 21.7563C30.4375 21.24 30.4375 18.76 28.6875 18.2438L28.2625 18.1187C28.0005 18.0416 27.7591 17.9068 27.556 17.7242C27.3529 17.5417 27.1932 17.3159 27.0887 17.0636C26.9841 16.8113 26.9374 16.5388 26.9519 16.2661C26.9664 15.9933 27.0418 15.7273 27.1725 15.4875L27.385 15.1C28.2575 13.4963 26.5037 11.7425 24.9012 12.6163L24.5125 12.8275C24.2727 12.9582 24.0067 13.0336 23.7339 13.0481C23.4612 13.0626 23.1887 13.0159 22.9364 12.9113C22.6841 12.8068 22.4583 12.6471 22.2758 12.444C22.0932 12.2409 21.9584 11.9995 21.8813 11.7375L21.7563 11.3125ZM20 23.6625C19.0286 23.6625 18.0971 23.2766 17.4102 22.5898C16.7234 21.9029 16.3375 20.9714 16.3375 20C16.3375 19.0286 16.7234 18.0971 17.4102 17.4102C18.0971 16.7234 19.0286 16.3375 20 16.3375C20.971 16.3375 21.9023 16.7232 22.5889 17.4099C23.2755 18.0965 23.6613 19.0277 23.6613 19.9987C23.6613 20.9698 23.2755 21.901 22.5889 22.5876C21.9023 23.2743 20.971 23.66 20 23.66V23.6625Z" fill="white"/>
<path d="M22.7154 11.0296L22.7156 11.0303L22.8405 11.4551C22.8406 11.4552 22.8406 11.4552 22.8406 11.4553C22.8756 11.5741 22.9367 11.6835 23.0195 11.7755L22.2758 12.444L23.0195 11.7755C23.1023 11.8676 23.2047 11.9401 23.3191 11.9875C23.4335 12.0349 23.5571 12.0561 23.6808 12.0495C23.8045 12.0429 23.9252 12.0087 24.0339 11.9494L24.035 11.9488L24.4225 11.7383C24.4228 11.7381 24.4231 11.738 24.4233 11.7378C26.9029 10.3868 29.6112 13.1005 28.2634 15.5779L28.2618 15.5808L28.0506 15.9661C28.0504 15.9663 28.0502 15.9666 28.0501 15.9669C27.9911 16.0755 27.9571 16.1958 27.9505 16.3192C27.9439 16.4429 27.9651 16.5665 28.0125 16.6809C28.0599 16.7953 28.1324 16.8977 28.2245 16.9805L27.556 17.7242L28.2245 16.9805C28.3166 17.0633 28.4261 17.1245 28.5449 17.1595L28.9697 17.2844L28.9704 17.2846C31.6765 18.0829 31.6765 21.9171 28.9704 22.7154L28.9697 22.7156L28.5449 22.8405C28.5448 22.8406 28.5448 22.8406 28.5447 22.8406C28.4259 22.8756 28.3165 22.9367 28.2245 23.0195L27.556 22.2758L28.2245 23.0195C28.1324 23.1023 28.0599 23.2047 28.0125 23.3191C27.9651 23.4335 27.9439 23.5571 27.9505 23.6808C27.9571 23.8045 27.9913 23.9252 28.0506 24.0339L28.0512 24.035L28.2617 24.4225L22.7154 11.0296ZM22.7154 11.0296C21.9171 8.32348 18.0829 8.32348 17.2846 11.0296L17.2844 11.0303M22.7154 11.0296L17.2844 11.0303M17.2844 11.0303L17.1595 11.4551C17.1594 11.4552 17.1594 11.4552 17.1594 11.4553C17.1244 11.5741 17.0633 11.6835 16.9805 11.7755C16.8977 11.8676 16.7953 11.9401 16.6809 11.9875C16.5665 12.0349 16.4429 12.0561 16.3192 12.0495C16.1958 12.0429 16.0755 12.0089 15.967 11.95C15.9667 11.9498 15.9664 11.9496 15.9661 11.9494L15.5808 11.7382L15.5808 11.7382M17.2844 11.0303L15.5808 11.7382M15.5808 11.7382L15.5779 11.7366M15.5808 11.7382L15.5779 11.7366M15.5779 11.7366C13.1005 10.3888 10.3868 13.0971 11.7379 15.5767C11.738 15.5769 11.7381 15.5772 11.7383 15.5775L11.9489 15.965L11.949 15.9653M15.5779 11.7366L11.949 15.9653M11.949 15.9653C12.2024 16.4311 11.9624 17.0095 11.4551 17.1595C11.4549 17.1595 11.4547 17.1596 11.4546 17.1596L11.0303 17.2844L11.0296 17.2846M11.949 15.9653L11.0296 17.2846M11.0296 17.2846C8.32348 18.0829 8.32348 21.9171 11.0296 22.7154L11.0303 22.7156M11.0296 17.2846L11.0303 22.7156M11.0303 22.7156L11.4551 22.8405C11.4552 22.8406 11.4552 22.8406 11.4553 22.8406C11.5741 22.8756 11.6835 22.9367 11.7755 23.0195L12.444 22.2758L11.7755 23.0195C11.8676 23.1023 11.9401 23.2047 11.9875 23.3191C12.0349 23.4335 12.0561 23.5571 12.0495 23.6808C12.0429 23.8042 12.0089 23.9245 11.95 24.033C11.9498 24.0333 11.9496 24.0336 11.9494 24.0339L11.7382 24.4192L11.7366 24.4221M11.0303 22.7156L11.7366 24.4221M11.7366 24.4221C10.3889 26.8993 13.0968 29.6129 15.5762 28.2624L11.7366 24.4221ZM15.9661 28.0506L15.965 28.0512L15.5775 28.2617L15.9661 28.0506ZM15.9661 28.0506C16.0748 27.9913 16.1955 27.9571 16.3192 27.9505C16.4429 27.9439 16.5665 27.9651 16.6809 28.0125C16.7953 28.0599 16.8977 28.1324 16.9805 28.2245L17.7242 27.556M15.9661 28.0506L17.7242 27.556M17.7242 27.556L16.9805 28.2245C17.0633 28.3166 17.1245 28.4261 17.1595 28.5449L17.2844 28.9697L17.2846 28.9704M17.7242 27.556L17.2846 28.9704M17.2846 28.9704C18.0829 31.6765 21.9171 31.6765 22.7154 28.9704L22.7156 28.9697M17.2846 28.9704L22.7156 28.9697M22.7156 28.9697L22.8405 28.5449C22.8406 28.5448 22.8406 28.5448 22.8406 28.5447C22.8756 28.4259 22.9367 28.3165 23.0195 28.2245L22.2758 27.556M22.7156 28.9697L22.2758 27.556M22.2758 27.556L23.0195 28.2245C23.1023 28.1324 23.2047 28.0599 23.3191 28.0125C23.4335 27.9651 23.5571 27.9439 23.6808 27.9505C23.8041 27.9571 23.9243 27.991 24.0328 28.0499C24.0332 28.0501 24.0335 28.0503 24.0339 28.0506L24.4192 28.2618L24.4221 28.2634C26.8993 29.6111 29.6129 26.9032 28.2624 24.4238L22.2758 27.556ZM20 22.66H19.8846C19.2204 22.6312 18.5894 22.3547 18.1173 21.8827C17.618 21.3834 17.3375 20.7061 17.3375 20C17.3375 19.2939 17.618 18.6166 18.1173 18.1173C18.6166 17.618 19.2939 17.3375 20 17.3375C20.7058 17.3375 21.3827 17.6179 21.8818 18.117C22.3809 18.616 22.6613 19.2929 22.6613 19.9987C22.6613 20.7046 22.3809 21.3815 21.8818 21.8805C21.3827 22.3796 20.7058 22.66 20 22.66Z" stroke="black" stroke-opacity="0.3" stroke-width="2"/>
</svg>
